Coordinates
version=1
nRows=28
nColumns=33
inDegrees=yes

Units are S.I. units (second, meters, Newtons, ...)
Angles are in degrees.

endheader
time	ground_thorax_rot_x	ground_thorax_rot_y	ground_thorax_rot_z	ground_thorax_tx	ground_thorax_ty	ground_thorax_tz	clav_prot_r	clav_elev_r	scapula_abduction_r	scapula_elevation_r	scapula_upward_rot_r	scapula_winging_r	shoulder_elv_r	plane_of_elev_r	axial_rot_r	elbow_flexion_r	pro_sup_r	wrist_flex_r	wrist_dev_r	clav_prot_l	clav_elev_l	scapula_abduction_l	scapula_elevation_l	scapula_upward_rot_l	scapula_winging_l	shoulder_elv_l	plane_of_elev_l	axial_rot_l	elbow_flexion_l	pro_sup_l	wrist_flex_l	wrist_dev_l	
6.7100	-35.161617	-17.919011	23.250803	-88.305722	854.023278	-43.552795	26.054357	-45.000000	38.636536	-45.000000	-45.000000	1696.525243	794.456458	23.912889	180.000000	366.413407	-166.182453	18.949766	14.415759	0.344751	32.091786	-32.093802	-45.000000	-45.000000	4405.830967	-4962.765140	27.799945	54.550343	1790.484631	-315.572418	11.912547	-23.382404	
6.7200	-35.057184	-18.182028	23.507433	-87.159639	853.404132	-43.525293	26.212000	-45.000000	38.777468	-45.000000	-45.000000	1696.554187	794.414177	23.891350	180.000000	366.372626	-166.491848	18.959216	14.385122	0.176937	32.089822	-31.957706	-45.000000	-45.000000	4405.774478	-4962.692813	27.776293	54.441891	1790.493204	-315.614456	11.838895	-23.350802	
6.7300	-34.974732	-18.406668	23.734427	-85.961446	852.818710	-43.506576	26.364722	-45.000000	38.886194	-45.000000	-45.000000	1696.613379	794.379877	23.864683	180.000000	366.320084	-166.829305	18.967812	14.354076	0.014818	32.092350	-31.856783	-45.000000	-45.000000	4405.726820	-4962.629864	27.771415	54.345195	1790.517879	-315.664606	11.755860	-23.302975	
6.7400	-34.895394	-18.616922	23.953298	-84.659300	852.305108	-43.503749	26.461073	-45.000000	38.978416	-45.000000	-45.000000	1696.658760	794.350637	23.875563	180.000000	366.249528	-167.229451	18.965720	14.359633	-0.100601	32.089216	-31.806343	-45.000000	-45.000000	4405.696876	-4962.576855	27.760520	54.355268	1790.537009	-315.732137	11.711076	-23.294774	
6.7500	-34.821700	-18.814463	24.168065	-83.238273	851.865696	-43.519515	26.515817	-45.000000	39.055294	-45.000000	-45.000000	1696.710635	794.325164	23.903656	180.000000	366.164178	-167.690608	18.953010	14.389453	-0.180890	32.086574	-31.791145	-45.000000	-45.000000	4405.676588	-4962.523052	27.752124	54.434701	1790.558670	-315.813584	11.689307	-23.303837	
6.7600	-34.764591	-18.971566	24.357432	-81.677023	851.505222	-43.556249	26.537102	-45.000000	39.093147	-45.000000	-45.000000	1696.772896	794.301021	23.961876	180.000000	366.063187	-168.221929	18.926024	14.440838	-0.202842	32.089704	-31.836715	-45.000000	-45.000000	4405.681562	-4962.487908	27.768975	54.580225	1790.587970	-315.909543	11.690527	-23.335132	
6.7700	-34.714375	-19.114032	24.546009	-79.965658	851.215849	-43.613575	26.534358	-45.000000	39.111826	-45.000000	-45.000000	1696.847586	794.271704	24.037267	180.000000	365.954236	-168.817439	18.882838	14.508221	-0.180705	32.099320	-31.911091	-45.000000	-45.000000	4405.699435	-4962.449378	27.807715	54.767078	1790.618718	-316.011557	11.711896	-23.374572	
6.7800	-34.672270	-19.231973	24.727820	-78.100084	850.982194	-43.688789	26.528065	-45.000000	39.102907	-45.000000	-45.000000	1696.938131	794.237584	24.130422	180.000000	365.836215	-169.470801	18.823392	14.584204	-0.114552	32.117660	-32.022467	-45.000000	-45.000000	4405.738724	-4962.421478	27.879929	54.985714	1790.655203	-316.118049	11.749112	-23.414931	
6.7900	-34.614548	-19.373822	24.948806	-76.078106	850.786375	-43.777605	26.518862	-45.000000	39.104708	-45.000000	-45.000000	1697.038270	794.196888	24.221305	180.000000	365.712140	-170.165324	18.749244	14.670041	-0.039556	32.137820	-32.124820	-45.000000	-45.000000	4405.775693	-4962.373270	27.959358	55.235479	1790.685867	-316.223962	11.805862	-23.443826	
6.8000	-34.543091	-19.523001	25.197613	-73.898488	850.609361	-43.874930	26.510369	-45.000000	39.103925	-45.000000	-45.000000	1697.150675	794.156602	24.312474	180.000000	365.574555	-170.892817	18.662356	14.763022	0.051779	32.162032	-32.239435	-45.000000	-45.000000	4405.817955	-4962.324261	28.049790	55.524526	1790.712022	-316.333695	11.882043	-23.459392	
6.8100	-34.439952	-19.711801	25.507366	-71.561441	850.432414	-43.975537	26.502167	-45.000000	39.128833	-45.000000	-45.000000	1697.269029	794.117366	24.389064	180.000000	365.424803	-171.637253	18.564080	14.864633	0.125939	32.183907	-32.335194	-45.000000	-45.000000	4405.846712	-4962.252476	28.128715	55.857859	1790.729164	-316.447903	11.979067	-23.450378	
6.8200	-34.306556	-19.924994	25.868068	-69.068473	850.238191	-44.074446	26.493867	-45.000000	39.167821	-45.000000	-45.000000	1697.393498	794.084253	24.455136	180.000000	365.259254	-172.390109	18.454568	14.973251	0.192358	32.205781	-32.429563	-45.000000	-45.000000	4405.868641	-4962.175662	28.199499	56.238481	1790.742035	-316.571290	12.096407	-23.419375	
6.8300	-34.138892	-20.169441	26.289927	-66.422727	850.011596	-44.167092	26.472577	-45.000000	39.223438	-45.000000	-45.000000	1697.528532	794.058893	24.499925	180.000000	365.079425	-173.144566	18.332806	15.089933	0.247868	32.228141	-32.513193	-45.000000	-45.000000	4405.875334	-4962.087765	28.254876	56.657099	1790.752081	-316.701641	12.231948	-23.361780	
6.8400	-33.948460	-20.417705	26.749138	-63.628936	849.740109	-44.249318	26.438662	-45.000000	39.275077	-45.000000	-45.000000	1697.676434	794.040569	24.535265	180.000000	364.889235	-173.898475	18.195261	15.212153	0.318225	32.255590	-32.608887	-45.000000	-45.000000	4405.877867	-4962.006119	28.311603	57.104954	1790.759119	-316.836455	12.383380	-23.283839	
6.8500	-33.731918	-20.676729	27.249371	-60.693105	849.413640	-44.317302	26.410096	-45.000000	39.329415	-45.000000	-45.000000	1697.827761	794.022921	24.570486	180.000000	364.696584	-174.640317	18.039698	15.338855	0.384796	32.280748	-32.699273	-45.000000	-45.000000	4405.872614	-4961.923229	28.373042	57.581456	1790.760762	-316.969887	12.548355	-23.184937	
6.8600	-33.490831	-20.945540	27.786269	-57.622134	849.024102	-44.367636	26.384536	-45.000000	39.386925	-45.000000	-45.000000	1697.984804	794.005001	24.604713	180.000000	364.504565	-175.357142	17.865481	15.467900	0.449245	32.303421	-32.786265	-45.000000	-45.000000	4405.860318	-4961.840823	28.436693	58.078298	1790.756110	-317.096149	12.723010	-23.064606	
6.8700	-33.223084	-21.229630	28.359128	-54.422919	848.564660	-44.397362	26.375778	-45.000000	39.452333	-45.000000	-45.000000	1698.141470	793.982973	24.644879	180.000000	364.316231	-176.031530	17.673615	15.596320	0.499006	32.318943	-32.859206	-45.000000	-45.000000	4405.839182	-4961.754967	28.501234	58.593618	1790.742276	-317.210406	12.903467	-22.923101	
6.8800	-32.931056	-21.523167	28.963828	-51.102825	848.029227	-44.404627	26.370228	-45.000000	39.522439	-45.000000	-45.000000	1698.303590	793.960221	24.682842	180.000000	364.132106	-176.648539	17.464890	15.721172	0.543074	32.330480	-32.926996	-45.000000	-45.000000	4405.808996	-4961.672002	28.562253	59.116933	1790.722289	-317.308320	13.085343	-22.760129	
6.8900	-32.613036	-21.831497	29.601054	-47.669978	847.412032	-44.389227	26.393431	-45.000000	39.602053	-45.000000	-45.000000	1698.459554	793.928873	24.729447	180.000000	363.956915	-177.187083	17.242198	15.837820	0.564534	32.331268	-32.974483	-45.000000	-45.000000	4405.768575	-4961.585934	28.623580	59.648917	1790.693739	-317.385153	13.265154	-22.578448	
6.9000	-32.273949	-22.143471	30.265108	-44.134338	846.707529	-44.353496	26.410156	-45.000000	39.680353	-45.000000	-45.000000	1698.623298	793.898269	24.767815	180.000000	363.787768	-177.638250	17.006633	15.944458	0.584910	32.329398	-33.018703	-45.000000	-45.000000	4405.717459	-4961.508674	28.679049	60.172259	1790.667669	-317.435144	13.439795	-22.378813	
6.9100	-31.910573	-22.464613	30.956116	-40.506505	845.910054	-44.301892	26.457436	-45.000000	39.766427	-45.000000	-45.000000	1698.777674	793.857872	24.815106	180.000000	363.633389	-177.988378	16.761225	16.037616	0.581609	32.316110	-33.040320	-45.000000	-45.000000	4405.655040	-4961.435863	28.738417	60.685772	1790.641062	-317.450279	13.607381	-22.166668	
6.9200	-31.529921	-22.782185	31.663744	-36.797120	845.013806	-44.240662	26.487945	-45.000000	39.845602	-45.000000	-45.000000	1698.945405	793.821388	24.850079	180.000000	363.487571	-178.235375	16.507901	16.114932	0.586538	32.302292	-33.059799	-45.000000	-45.000000	4405.579427	-4961.380105	28.793062	61.175302	1790.621163	-317.422922	13.767326	-21.943455	
6.9300	-31.128469	-23.106762	32.394175	-33.013695	844.012517	-44.176135	26.546539	-45.000000	39.929431	-45.000000	-45.000000	1699.108288	793.773324	24.885554	180.000000	363.357248	-178.368000	16.252691	16.171803	0.575080	32.277605	-33.053148	-45.000000	-45.000000	4405.490425	-4961.326576	28.852134	61.651126	1790.599877	-317.348767	13.918770	-21.713538	
6.9400	-30.713331	-23.428539	33.137345	-29.159136	842.899407	-44.113592	26.588748	-45.000000	40.005511	-45.000000	-45.000000	1699.286065	793.725142	24.905525	180.000000	363.237917	-178.388019	15.998838	16.208108	0.574858	32.251474	-33.042242	-45.000000	-45.000000	4405.389112	-4961.288687	28.904471	62.104343	1790.585835	-317.227614	14.060512	-21.477477	
6.9500	-30.283662	-23.754730	33.896717	-25.229858	841.667119	-44.055578	26.646449	-45.000000	40.083007	-45.000000	-45.000000	1699.469754	793.666168	24.914381	180.000000	363.137091	-178.287842	15.752536	16.220147	0.572859	32.218326	-33.014822	-45.000000	-45.000000	4405.277014	-4961.259614	28.955205	62.539598	1790.574549	-317.063047	14.189750	-21.237384	
6.9600	-29.849026	-24.073374	34.658819	-21.218303	840.308331	-44.002166	26.673953	-45.000000	40.145560	-45.000000	-45.000000	1699.683535	793.610839	24.893887	180.000000	363.049149	-178.072253	15.517183	16.207712	0.602874	32.189263	-32.994548	-45.000000	-45.000000	4405.152709	-4961.252796	28.994423	62.951196	1790.570290	-316.860628	14.303574	-20.990766	
6.9700	-29.409024	-24.390227	35.428451	-17.115976	838.816434	-43.951382	26.700794	-45.000000	40.200188	-45.000000	-45.000000	1699.915689	793.547681	24.847994	180.000000	362.981778	-177.740919	15.296547	16.170298	0.648525	32.157466	-32.968420	-45.000000	-45.000000	4405.014492	-4961.258863	29.028435	63.347585	1790.570362	-316.628223	14.398179	-20.738466	
6.9800	-28.965499	-24.702012	36.196761	-12.917485	837.186064	-43.900527	26.727087	-45.000000	40.248835	-45.000000	-45.000000	1700.160451	793.475480	24.787145	180.000000	362.939105	-177.302200	15.090679	16.111695	0.702394	32.120134	-32.936422	-44.999999	-45.000000	4404.858731	-4961.282987	29.057902	63.729151	1790.573631	-316.371383	14.471519	-20.481135	
